<svg width="116" height="15" viewBox="0 0 116 15" fill="none" xmlns="http://www.w3.org/2000/svg">
<path d="M7.07007 3.93182V14.7121H4.09963V3.93182H0V1.01074H11.19V3.9266H7.07007V3.93182Z" fill="white"/>
<path d="M24.6748 14.7121V9.26188H19.3544V14.7121H16.3789V1.01074H19.3494V6.3826H24.6697V1.01074H27.6605V14.7069H24.6748V14.7121Z" fill="white"/>
<path d="M33.9258 14.7121V1.01074H42.3692V3.89002H36.8962V6.49756H41.8605V9.18349H36.8962V11.8119H42.3895V14.7121H33.9258Z" fill="white"/>
<path d="M55.5176 7.89308C55.5176 3.62381 58.6762 0.723633 62.3995 0.723633C66.4075 0.723633 68.1725 3.37298 68.6048 5.34302L65.8022 6.25226C65.5937 5.30644 64.7494 3.70219 62.3995 3.70219C60.6141 3.70219 58.5999 5.01381 58.5999 7.89308C58.5999 10.4641 60.4412 11.9481 62.4351 11.9481C64.7494 11.9481 65.67 10.3648 65.9345 9.37714L68.7727 10.208C68.3404 12.0996 66.5703 14.9998 62.4351 14.9998C58.5999 14.9998 55.5176 12.1624 55.5176 7.89308Z" fill="white"/>
<path d="M81.524 11.9269H76.3715L75.4101 14.7069H72.2871L77.3125 1.01074H80.7559L85.7202 14.7069H82.4853L81.524 11.9269ZM77.3481 9.14692H80.583L78.9859 4.41257L77.3481 9.14692Z" fill="white"/>
<path d="M95.2182 9.31936L93.7126 11.0386V14.7069H90.7422V1.01074H93.7126V6.76929L98.5854 1.01074H102.497L97.3087 6.94174L102.517 14.7069H98.8143L95.2182 9.31936Z" fill="white"/>
<path d="M107.535 14.7121V1.01074H115.979V3.89002H110.506V6.49756H115.47V9.18349H110.506V11.8119H115.999V14.7121H107.535Z" fill="white"/>
</svg>
