<svg width="116" height="15" viewBox="0 0 116 15" fill="none" xmlns="http://www.w3.org/2000/svg">
<path d="M7.07007 3.93233V14.7127H4.09963V3.93233H0V1.01123H11.19V3.92711H7.07007V3.93233Z" fill="#011627"/>
<path d="M24.6738 14.7127V9.26244H19.3535V14.7127H16.3779V1.01123H19.3484V6.38314H24.6687V1.01123H27.6595V14.7075H24.6738V14.7127Z" fill="#011627"/>
<path d="M33.9258 14.7127V1.01123H42.3692V3.89053H36.8962V6.4981H41.8605V9.18405H36.8962V11.8125H42.3895V14.7127H33.9258Z" fill="#011627"/>
<path d="M55.5176 7.89314C55.5176 3.62384 58.6762 0.723633 62.3995 0.723633C66.4075 0.723633 68.1725 3.37301 68.6049 5.34306L65.8022 6.25231C65.5937 5.30648 64.7494 3.70222 62.3995 3.70222C60.6141 3.70222 58.5999 5.01384 58.5999 7.89314C58.5999 10.4641 60.4412 11.9482 62.4351 11.9482C64.7494 11.9482 65.67 10.3648 65.9345 9.37721L68.7727 10.2081C68.3404 12.0997 66.5703 14.9999 62.4351 14.9999C58.5999 14.9999 55.5176 12.1625 55.5176 7.89314Z" fill="#011627"/>
<path d="M81.525 11.9275H76.3724L75.4111 14.7075H72.2881L77.3134 1.01123H80.7569L85.7212 14.7075H82.4863L81.525 11.9275ZM77.349 9.14748H80.584L78.9868 4.41309L77.349 9.14748Z" fill="#011627"/>
<path d="M95.2172 9.31992L93.7117 11.0391V14.7075H90.7412V1.01123H93.7117V6.76983L98.5844 1.01123H102.496L97.3077 6.94228L102.516 14.7075H98.8133L95.2172 9.31992Z" fill="#011627"/>
<path d="M107.536 14.7127V1.01123H115.98V3.89053H110.507V6.4981H115.471V9.18405H110.507V11.8125H116V14.7127H107.536Z" fill="#011627"/>
</svg>
