<svg width="19" height="16" viewBox="0 0 19 16" fill="none" xmlns="http://www.w3.org/2000/svg">
<path fill-rule="evenodd" clip-rule="evenodd" d="M18.307 2.56907C17.6228 2.86916 16.8982 3.06678 16.1565 3.15557C16.9368 2.68672 17.521 1.95133 17.8013 1.08524C17.064 1.5144 16.2607 1.8185 15.424 1.98519C14.3746 0.867053 12.749 0.502942 11.3229 1.06664C9.89686 1.63033 8.95951 3.00757 8.95826 4.54099C8.95826 4.82897 8.99065 5.11555 9.05481 5.39579C6.0469 5.25184 3.24239 3.83462 1.34232 1.4984C1.00695 2.06837 0.83199 2.71843 0.835976 3.37973C0.834833 4.63109 1.45923 5.80002 2.49981 6.49476C1.90571 6.47584 1.32474 6.31516 0.805349 6.02612L0.805348 6.07239C0.804283 7.85344 2.05812 9.38832 3.80327 9.7426C3.25458 9.89065 2.67954 9.9129 2.12105 9.8077C2.61388 11.3317 4.01966 12.375 5.62111 12.4052C4.29786 13.4437 2.66402 14.0073 0.981947 14.0057C0.685804 14.0051 0.389927 13.9879 0.0957031 13.9542C1.81085 15.0513 3.80474 15.6332 5.84072 15.6309C12.7242 15.6309 16.4836 9.93217 16.4836 4.99781C16.4836 4.8388 16.4836 4.67849 16.4725 4.51884C17.2065 3.99098 17.8397 3.33567 18.3421 2.58406L18.307 2.56907Z" fill="#007CBE"/>
</svg>
