<svg width="19" height="14" viewBox="0 0 19 14" fill="none" xmlns="http://www.w3.org/2000/svg">
<path fill-rule="evenodd" clip-rule="evenodd" d="M17.9565 2.51297C17.851 2.13076 17.649 1.78207 17.3701 1.5003C17.0928 1.2197 16.7474 1.01583 16.3678 0.90859C14.9459 0.523459 9.22366 0.523459 9.22366 0.523459C9.22366 0.523459 3.51773 0.513684 2.08148 0.909241C1.70184 1.01648 1.35652 1.22036 1.07922 1.50095C0.800238 1.78272 0.59829 2.13142 0.492731 2.51363C0.223179 3.98486 0.0903262 5.47787 0.0958697 6.97358C0.0918202 8.4631 0.225083 9.95018 0.493969 11.4156C0.599491 11.7979 0.801466 12.1468 1.08053 12.4286C1.35782 12.7092 1.70315 12.9131 2.08278 13.0203C3.50275 13.4061 9.22692 13.4061 9.22692 13.4061C9.22692 13.4061 14.9335 13.4061 16.3711 13.0203C16.7507 12.9131 17.096 12.7092 17.3733 12.4286C17.6523 12.1469 17.8542 11.7982 17.9598 11.4159C18.2226 9.94975 18.3498 8.46246 18.3397 6.97293C18.3498 5.47783 18.2215 3.98482 17.9566 2.51316L17.9565 2.51297ZM7.39872 9.73115V4.20508L12.161 6.97268L7.39872 9.73115Z" fill="#007CBE"/>
</svg>
